REM DIRINDEX 1\2\4,1\2\5,1\2\6,1\3\7,1\3\8
REM DIRNAME folder01,folder02,folder03,folder04,folder05,folder06,folder07,folder08
TITLE ""
FILE "024_Lesson 20_Output_Stage.mp3" MP3
  TRACK 01 AUDIO
    TITLE "0:"
    INDEX 01 00:00:00
  TRACK 02 AUDIO
    TITLE "8:cjc128_3388"
    INDEX 01 00:00:09
  TRACK 03 AUDIO
    TITLE "0:"
    INDEX 01 00:03:00
  TRACK 04 AUDIO
    TITLE "8:cjc128_3389"
    INDEX 01 00:03:53
  TRACK 05 AUDIO
    TITLE "0:"
    INDEX 01 00:05:59
  TRACK 06 AUDIO
    TITLE "7:cjc128_3390"
    INDEX 01 00:06:55
  TRACK 07 AUDIO
    TITLE "0:"
    INDEX 01 00:10:47
  TRACK 08 AUDIO
    TITLE "8:cjc128_3391"
    INDEX 01 00:15:34
  TRACK 09 AUDIO
    TITLE "0:"
    INDEX 01 00:17:37
  TRACK 10 AUDIO
    TITLE "7:cjc128_3392"
    INDEX 01 00:18:35
  TRACK 11 AUDIO
    TITLE "0:"
    INDEX 01 00:21:58
  TRACK 12 AUDIO
    TITLE "8:cjc128_3393"
    INDEX 01 00:25:54
  TRACK 13 AUDIO
    TITLE "0:"
    INDEX 01 00:27:61
  TRACK 14 AUDIO
    TITLE "7:cjc128_3394"
    INDEX 01 00:28:57
  TRACK 15 AUDIO
    TITLE "0:"
    INDEX 01 00:32:35
  TRACK 16 AUDIO
    TITLE "8:cjc128_3395"
    INDEX 01 00:36:40
  TRACK 17 AUDIO
    TITLE "0:"
    INDEX 01 00:38:59
  TRACK 18 AUDIO
    TITLE "7:cjc128_3396"
    INDEX 01 00:39:37
  TRACK 19 AUDIO
    TITLE "0:"
    INDEX 01 00:42:74
  TRACK 20 AUDIO
    TITLE "8:cjc128_3397"
    INDEX 01 00:46:58
  TRACK 21 AUDIO
    TITLE "0:"
    INDEX 01 00:48:67
  TRACK 22 AUDIO
    TITLE "7:cjc128_3398"
    INDEX 01 00:49:49
  TRACK 23 AUDIO
    TITLE "0:"
    INDEX 01 00:52:02
  TRACK 24 AUDIO
    TITLE "8:cjc128_3399"
    INDEX 01 00:55:01
  TRACK 25 AUDIO
    TITLE "0:"
    INDEX 01 00:57:11
  TRACK 26 AUDIO
    TITLE "7:cjc128_3400"
    INDEX 01 00:58:01
  TRACK 27 AUDIO
    TITLE "0:"
    INDEX 01 01:02:63
  TRACK 28 AUDIO
    TITLE "8:cjc128_3401"
    INDEX 01 01:08:13
  TRACK 29 AUDIO
    TITLE "0:"
    INDEX 01 01:10:08
  TRACK 30 AUDIO
    TITLE "7:cjc128_3402"
    INDEX 01 01:10:67
  TRACK 31 AUDIO
    TITLE "0:"
    INDEX 01 01:14:47
  TRACK 32 AUDIO
    TITLE "8:cjc128_3403"
    INDEX 01 01:18:62
  TRACK 33 AUDIO
    TITLE "0:"
    INDEX 01 01:20:67
  TRACK 34 AUDIO
    TITLE "7:cjc128_3404"
    INDEX 01 01:21:57
  TRACK 35 AUDIO
    TITLE "0:"
    INDEX 01 01:25:19
  TRACK 36 AUDIO
    TITLE "8:cjc128_3405"
    INDEX 01 01:29:37
  TRACK 37 AUDIO
    TITLE "0:"
    INDEX 01 01:31:06
  TRACK 38 AUDIO
    TITLE "7:cjc128_3406"
    INDEX 01 01:32:02
  TRACK 39 AUDIO
    TITLE "0:"
    INDEX 01 01:34:59
  TRACK 40 AUDIO
    TITLE "8:cjc128_3407"
    INDEX 01 01:38:22
  TRACK 41 AUDIO
    TITLE "0:"
    INDEX 01 01:40:15
  TRACK 42 AUDIO
    TITLE "7:cjc128_3408"
    INDEX 01 01:41:10
  TRACK 43 AUDIO
    TITLE "0:"
    INDEX 01 01:43:51
  TRACK 44 AUDIO
    TITLE "8:cjc128_3409"
    INDEX 01 01:46:49
  TRACK 45 AUDIO
    TITLE "0:"
    INDEX 01 01:48:44
  TRACK 46 AUDIO
    TITLE "7:cjc128_3410"
    INDEX 01 01:49:35
  TRACK 47 AUDIO
    TITLE "0:"
    INDEX 01 01:52:63
  TRACK 48 AUDIO
    TITLE "8:cjc128_3411"
    INDEX 01 01:56:67
  TRACK 49 AUDIO
    TITLE "0:"
    INDEX 01 01:58:58
  TRACK 50 AUDIO
    TITLE "7:cjc128_3412"
    INDEX 01 01:59:50
  TRACK 51 AUDIO
    TITLE "0:"
    INDEX 01 02:02:60
  TRACK 52 AUDIO
    TITLE "8:cjc128_3413"
    INDEX 01 02:06:48
  TRACK 53 AUDIO
    TITLE "0:"
    INDEX 01 02:08:45
  TRACK 54 AUDIO
    TITLE "7:cjc128_3414"
    INDEX 01 02:09:40
  TRACK 55 AUDIO
    TITLE "0:"
    INDEX 01 02:12:35
  TRACK 56 AUDIO
    TITLE "8:cjc128_3415"
    INDEX 01 02:15:60
  TRACK 57 AUDIO
    TITLE "0:"
    INDEX 01 02:17:61
  TRACK 58 AUDIO
    TITLE "7:cjc128_3416"
    INDEX 01 02:18:45
  TRACK 59 AUDIO
    TITLE "0:"
    INDEX 01 02:22:00
  TRACK 60 AUDIO
    TITLE "8:cjc128_3417"
    INDEX 01 02:26:13
  TRACK 61 AUDIO
    TITLE "0:"
    INDEX 01 02:28:12
  TRACK 62 AUDIO
    TITLE "7:cjc128_3418"
    INDEX 01 02:28:69
  TRACK 63 AUDIO
    TITLE "0:"
    INDEX 01 02:32:06
  TRACK 64 AUDIO
    TITLE "8:cjc128_3419"
    INDEX 01 02:36:08
  TRACK 65 AUDIO
    TITLE "0:"
    INDEX 01 02:38:16
  TRACK 66 AUDIO
    TITLE "7:cjc128_3420"
    INDEX 01 02:39:10
  TRACK 67 AUDIO
    TITLE "0:"
    INDEX 01 02:42:30
  TRACK 68 AUDIO
    TITLE "8:cjc128_3421"
    INDEX 01 02:46:45
  TRACK 69 AUDIO
    TITLE "0:"
    INDEX 01 02:48:36
  TRACK 70 AUDIO
    TITLE "7:cjc128_3422"
    INDEX 01 02:49:26
  TRACK 71 AUDIO
    TITLE "0:"
    INDEX 01 02:52:12
  TRACK 72 AUDIO
    TITLE "8:cjc128_3423"
    INDEX 01 02:55:36
  TRACK 73 AUDIO
    TITLE "0:"
    INDEX 01 02:57:33
  TRACK 74 AUDIO
    TITLE "7:cjc128_3424"
    INDEX 01 02:58:29
  TRACK 75 AUDIO
    TITLE "0:"
    INDEX 01 03:01:31
  TRACK 76 AUDIO
    TITLE "8:cjc128_3425"
    INDEX 01 03:04:59
  TRACK 77 AUDIO
    TITLE "0:"
    INDEX 01 03:06:28
  TRACK 78 AUDIO
    TITLE "7:cjc128_3426"
    INDEX 01 03:07:20
  TRACK 79 AUDIO
    TITLE "0:"
    INDEX 01 03:10:12
  TRACK 80 AUDIO
    TITLE "8:cjc128_3427"
    INDEX 01 03:13:68
  TRACK 81 AUDIO
    TITLE "0:"
    INDEX 01 03:15:64
  TRACK 82 AUDIO
    TITLE "7:cjc128_3428"
    INDEX 01 03:16:60
  TRACK 83 AUDIO
    TITLE "0:"
    INDEX 01 03:19:52
  TRACK 84 AUDIO
    TITLE "8:cjc128_3429"
    INDEX 01 03:23:48
  TRACK 85 AUDIO
    TITLE "0:"
    INDEX 01 03:25:39
  TRACK 86 AUDIO
    TITLE "7:cjc128_3430"
    INDEX 01 03:26:29
  TRACK 87 AUDIO
    TITLE "0:"
    INDEX 01 03:29:47
  TRACK 88 AUDIO
    TITLE "8:cjc128_3431"
    INDEX 01 03:33:51
  TRACK 89 AUDIO
    TITLE "0:"
    INDEX 01 03:35:46
  TRACK 90 AUDIO
    TITLE "7:cjc128_3432"
    INDEX 01 03:36:37
  TRACK 91 AUDIO
    TITLE "0:"
    INDEX 01 03:39:16
  TRACK 92 AUDIO
    TITLE "8:cjc128_3433"
    INDEX 01 03:42:57
  TRACK 93 AUDIO
    TITLE "0:"
    INDEX 01 03:44:52
  TRACK 94 AUDIO
    TITLE "7:cjc128_3434"
    INDEX 01 03:45:42
  TRACK 95 AUDIO
    TITLE "0:"
    INDEX 01 03:48:66
  TRACK 96 AUDIO
    TITLE "8:cjc128_3435"
    INDEX 01 03:53:04
  TRACK 97 AUDIO
    TITLE "0:"
    INDEX 01 03:55:11
  TRACK 98 AUDIO
    TITLE "7:cjc128_3436"
    INDEX 01 03:55:72
  TRACK 99 AUDIO
    TITLE "0:"
    INDEX 01 03:58:70
